<svg width="70" height="70" viewBox="0 0 70 70" fill="none" xmlns="http://www.w3.org/2000/svg">
<rect width="70" height="70" transform="matrix(1 0 0 -1 0 70)" fill="white"/>
<path d="M54.7855 25.9295C54.7124 25.1665 54.5825 24.4101 54.397 23.6664C53.365 19.4936 51.2376 16.0628 48.0127 13.4393C45.5597 11.4176 42.647 10.0304 39.5314 9.39991L39.1804 9.33204L39.0259 9.30162C38.5579 9.21971 38.0898 9.15184 37.6218 9.09801L37.2473 9.05823C37.2278 9.05705 37.2083 9.05705 37.1888 9.05823C37.1834 9.05702 37.1778 9.05702 37.1724 9.05823C37.1577 9.06067 37.1427 9.06067 37.128 9.05823C35.3819 8.94514 33.6291 8.99686 31.8927 9.21269L31.8506 9.22673C31.6165 9.26183 31.3825 9.30396 31.1344 9.34843C28.4447 9.84745 25.8833 10.8838 23.6033 12.3955C20.6797 14.2981 18.3377 16.9705 16.8352 20.1185C15.9705 21.9234 15.4046 23.8566 15.1595 25.8429C15.1221 26.1284 15.1221 26.4233 15.08 26.7111C15.023 27.144 14.9964 27.5804 15.0004 28.017V28.4851C15.0004 28.4851 15.0004 28.9929 15.0542 29.6927C15.0542 29.7348 15.0659 29.7746 15.0706 29.8167C15.0729 29.8471 15.0729 29.8776 15.0706 29.908C15.0706 30.0203 15.087 30.142 15.0963 30.2567C15.1098 30.2966 15.1138 30.339 15.108 30.3807V30.3948C15.1244 30.6288 15.1525 30.8628 15.1876 31.1109C15.211 31.2981 15.2391 31.4854 15.2695 31.6702C15.2695 31.6702 15.2695 31.689 15.2695 31.6983C15.6681 34.2078 16.6739 36.5819 18.1996 38.6139C19.2761 40.0789 20.5118 41.4059 21.71 42.7656C23.2926 44.513 24.6547 46.4481 25.7658 48.5274C26.0022 48.9487 26.1285 49.4228 26.1332 49.9059C26.1145 53.7487 26.1332 57.5914 26.1168 61.4342C26.1168 61.694 26.1894 61.7572 26.4445 61.7572C32.2531 61.7572 38.0633 61.7572 43.875 61.7572C43.9125 61.7548 43.95 61.7548 43.9874 61.7572C44.1957 61.7876 44.2214 61.6659 44.2003 61.4459C44.1676 61.116 44.1676 60.7836 44.2003 60.4536C44.2401 60.1166 44.1325 60.0628 43.847 60.0628C38.6078 60.0722 33.3679 60.0761 28.1271 60.0745C27.8042 60.0745 27.7738 59.9692 27.8182 59.5058C27.9247 58.3623 27.9247 57.2114 27.8182 56.0679C27.7691 55.5647 27.7995 55.4571 28.1412 55.4571C32.7547 55.4664 37.3674 55.4664 41.9794 55.4571C42.0543 55.4571 42.1315 55.4571 42.2134 55.4571C42.3632 55.4711 42.4077 55.4009 42.4053 55.2605C42.4053 54.8767 42.4053 54.4929 42.4053 54.1091C42.4053 53.7253 42.4053 53.7346 42.0168 53.7346C37.3955 53.7346 32.7734 53.7346 28.1505 53.7346C27.8791 53.7346 27.8089 53.6597 27.8112 53.3929C27.8252 52.1104 27.8112 50.8186 27.8112 49.5502C27.8112 49.3161 27.8721 49.2225 28.1248 49.2295C29.295 49.2553 30.4651 49.2553 31.6353 49.2646C35.7238 49.2904 39.8123 49.2646 43.9031 49.281C44.0197 49.2974 44.1384 49.2718 44.2378 49.2088C44.3373 49.1458 44.4111 49.0494 44.4461 48.937C45.2251 47.1873 46.2112 45.5373 47.3832 44.0224C48.5533 42.4707 49.8615 41.0314 51.0598 39.5032C52.3097 37.973 53.2967 36.2457 53.9805 34.392C54.9189 31.6539 55.0828 28.8221 54.7855 25.9295ZM52.6793 32.9831C52.1866 34.6712 51.3938 36.2568 50.339 37.6638C49.3186 39.0843 48.1508 40.3855 47.0462 41.7382C45.6313 43.42 44.4099 45.2554 43.4046 47.2099C43.3776 47.2829 43.3265 47.3445 43.2597 47.3845C43.1928 47.4246 43.1144 47.4405 43.0372 47.4298C40.4286 47.4298 37.8176 47.4298 35.2042 47.4298H33.126C31.1695 47.4298 29.213 47.4298 27.2589 47.4298C27.1909 47.435 27.1231 47.4183 27.0654 47.3821C27.0077 47.3458 26.9631 47.292 26.9383 47.2286C25.9774 45.4843 24.8361 43.8457 23.5331 42.3397C22.3138 40.8981 21.0033 39.5313 19.8448 38.0452C18.3549 36.1892 17.354 33.9894 16.9335 31.6468C16.6646 30.0342 16.5962 28.3944 16.7299 26.765C16.8968 24.5908 17.49 22.4708 18.4757 20.5257C19.8023 17.8911 21.7759 15.6364 24.2118 13.9729C26.4198 12.4511 28.9251 11.4143 31.5627 10.9305C33.1828 10.6327 34.8337 10.5376 36.4773 10.6473C38.9277 10.782 41.3251 11.4134 43.524 12.5032C47.3223 14.3988 50.119 17.2657 51.8274 21.1623C52.5698 22.8711 53.0305 24.6889 53.1918 26.545C53.4083 28.7044 53.2347 30.8852 52.6793 32.9831Z" fill="#ADAFAA"/>
<path d="M33.1261 47.4346C33.0657 46.2274 32.7303 45.0499 32.1455 43.9921C32.124 43.9413 32.0865 43.8991 32.0388 43.8716C31.9911 43.8441 31.9357 43.833 31.881 43.8399C30.968 43.8605 30.0554 43.782 29.1593 43.6059C27.4274 43.2829 25.8828 42.6019 24.7127 41.2211C24.1145 40.4682 23.6765 39.6009 23.4255 38.6725C23.1185 37.601 22.961 36.4921 22.9575 35.3774C22.9458 34.7721 22.9669 34.1667 23.0207 33.5637C23.0487 33.2828 23.1985 33.2571 23.4021 33.2454C24.2007 33.1919 25.0017 33.1865 25.8009 33.229C26.8237 33.2895 27.8345 33.4814 28.8082 33.8C29.9034 34.1429 30.8879 34.7704 31.6611 35.6184C32.3186 36.3818 32.8032 37.2784 33.0816 38.2466C33.4596 39.4839 33.6304 40.7753 33.5871 42.0683C33.5784 42.1421 33.588 42.2169 33.6152 42.286C33.7907 42.6206 33.9756 42.9506 34.1745 43.3134C34.4601 42.8757 34.6824 42.4381 34.9679 42.0402C35.4445 41.3529 36.0113 40.7326 36.6529 40.1961C36.7362 40.1389 36.8033 40.0613 36.848 39.9708C36.8927 39.8802 36.9133 39.7797 36.908 39.6789C36.8705 38.9148 36.8893 38.149 36.9642 37.3877C37.1982 35.3142 37.6967 33.3273 39.019 31.6399C39.9972 30.3925 41.2937 29.6085 42.7635 29.096C44.5819 28.4665 46.4658 28.305 48.3802 28.3682C48.8155 28.3822 49.2508 28.4454 49.6861 28.4688C49.8429 28.4688 49.8616 28.5531 49.8733 28.6794C49.9618 29.486 49.9954 30.2976 49.9739 31.1087C49.9061 32.9575 49.6416 34.7666 48.8599 36.468C48.5211 37.2022 48.0729 37.8808 47.5306 38.4806C46.4096 39.7374 44.9704 40.4348 43.3883 40.8865C42.3286 41.1737 41.2412 41.3463 40.1447 41.4013C39.6298 41.4341 39.1196 41.4154 38.6071 41.4364C38.5066 41.4401 38.4103 41.4772 38.3333 41.5418C37.425 42.2479 36.6773 43.1391 36.1398 44.1563C35.6024 45.1735 35.2875 46.2934 35.216 47.4417L33.1261 47.4346Z" fill="#93C35E"/>
</svg>
