<svg width="70" height="74" viewBox="0 0 70 74" fill="none" xmlns="http://www.w3.org/2000/svg">
<g clip-path="url(#clip0_316_255)">
<path d="M22.2283 55.4514H60.2432V47.4163H22.2283V55.4514ZM36.5562 31.6662H60.2443V23.6311H36.5562V31.6662ZM10.2695 0V19.7753H18.1563V8.03511H60.2432V0H10.2695ZM32.4873 23.6825H10.2695V55.4034H18.1563V31.7176H32.4873V23.6825Z" fill="#9DBC78"/>
<path d="M0 73.5256V65.0576H6.20067V66.5967H1.62719V68.9107H5.95375V70.3885H1.62719V73.5256H0Z" fill="#9DBC78"/>
<path d="M13.7556 73.5259H7.29688V65.0459H13.7556V66.597H8.91183V68.547H13.5832V70.0369H8.91183V71.9508H13.7556V73.5259Z" fill="#9DBC78"/>
<path d="M17.5039 73.5256V65.0576H23.7046V66.5967H19.1311V68.9107H23.4577V70.3885H19.1311V73.5256H17.5039Z" fill="#9DBC78"/>
<path d="M24.9609 73.5259V65.0459H26.5759V73.5259H24.9609Z" fill="#9DBC78"/>
<path d="M33.7732 65.0332H35.4004V73.5253H34.3894V73.5373L29.8538 67.8074V73.5253H28.2266V65.0452H29.5457L33.7732 70.3029V65.0332Z" fill="#9DBC78"/>
<path d="M43.0196 71.9268H38.5084L37.7687 73.5259H36.0059L39.8764 65.0459H41.6515L45.5221 73.5259H43.747L43.0196 71.9268ZM40.764 66.8265L39.1612 70.4369H42.3656L40.7629 66.8265H40.764Z" fill="#9DBC78"/>
<path d="M51.9314 65.0332H53.5586V73.5253H52.5476V73.5373L48.012 67.8074V73.5253H46.3848V65.0452H47.7039L51.9314 70.3029V65.0332Z" fill="#9DBC78"/>
<path d="M62.6532 72.4596C61.7656 73.3198 60.6189 73.7199 59.3743 73.7199C56.17 73.7199 54.8131 71.5512 54.8009 69.3465C54.7886 67.1298 56.2557 64.877 59.3743 64.877C60.5455 64.877 61.6544 65.3131 62.542 66.1733L61.4575 67.203C60.8903 66.6576 60.1262 66.404 59.3743 66.404C57.2911 66.404 56.3913 67.9299 56.4036 69.3476C56.4158 70.7533 57.2422 72.2191 59.3743 72.2191C60.1262 72.2191 60.9771 71.9163 61.5432 71.3589L62.6521 72.4607L62.6532 72.4596Z" fill="#9DBC78"/>
<path d="M69.9997 73.5259H63.541V65.0459H69.9997V66.597H65.156V68.547H69.8273V70.0369H65.156V71.9508H69.9997V73.5259Z" fill="#9DBC78"/>
</g>
<defs>
<clipPath id="clip0_316_255">
<rect width="70" height="74" fill="white"/>
</clipPath>
</defs>
</svg>
