<svg xmlns="http://www.w3.org/2000/svg" width="26.25" height="36.522" viewBox="0 0 26.25 36.522">
  <g id="Icon_ionic-ios-trash" data-name="Icon ionic-ios-trash" transform="translate(-8.297 -4.5)">
    <path id="Pfad_17" data-name="Pfad 17" d="M9.359,9,11.6,36.649a2.785,2.785,0,0,0,2.787,2.787H27.8a2.785,2.785,0,0,0,2.787-2.787L32.8,9Zm5.859,25.2L14.58,12.044h1.76L17,34.2Zm6.686,0H20.192V12.044H21.9Zm4.974,0H25.109l.647-22.161h1.76Z" transform="translate(0.374 1.587)" fill="#4b4b4d"/>
    <path id="Pfad_18" data-name="Pfad 18" d="M31.694,7.163H28.27l-2.5-2.188A1.928,1.928,0,0,0,24.513,4.5H18.35a1.959,1.959,0,0,0-1.274.476l-2.5,2.188H11.15c-1.674,0-2.853.8-2.853,2.473h26.25C34.547,7.962,33.368,7.163,31.694,7.163Z" fill="#4b4b4d"/>
  </g>
</svg>
