<svg xmlns="http://www.w3.org/2000/svg" width="35" height="34.875" viewBox="0 0 35 34.875">
  <path id="Icon_awesome-info-circle" data-name="Icon awesome-info-circle" d="M18.063.563A17.438,17.438,0,1,0,35.563,18,17.472,17.472,0,0,0,18.063.563Zm0,7.734A2.953,2.953,0,1,1,15.1,11.25,2.958,2.958,0,0,1,18.063,8.3Zm3.952,17.859a.845.845,0,0,1-.847.844h-6.21a.845.845,0,0,1-.847-.844V24.469a.845.845,0,0,1,.847-.844H15.8v-4.5h-.847a.845.845,0,0,1-.847-.844V16.594a.845.845,0,0,1,.847-.844h4.516a.845.845,0,0,1,.847.844v7.031h.847a.845.845,0,0,1,.847.844Z" transform="translate(-0.563 -0.563)" fill="#4b4b4d"/>
</svg>
